<svg width="18" height="18" viewBox="0 0 18 18" fill="none" xmlns="http://www.w3.org/2000/svg">
<path d="M16.5625 0.75H5.5625C5.38016 0.75 5.2053 0.822433 5.07636 0.951364C4.94743 1.0803 4.875 1.25516 4.875 1.4375V4.875H1.4375C1.25516 4.875 1.0803 4.94743 0.951364 5.07636C0.822433 5.2053 0.75 5.38016 0.75 5.5625V16.5625C0.75 16.7448 0.822433 16.9197 0.951364 17.0486C1.0803 17.1776 1.25516 17.25 1.4375 17.25H12.4375C12.6198 17.25 12.7947 17.1776 12.9236 17.0486C13.0526 16.9197 13.125 16.7448 13.125 16.5625V13.125H16.5625C16.7448 13.125 16.9197 13.0526 17.0486 12.9236C17.1776 12.7947 17.25 12.6198 17.25 12.4375V1.4375C17.25 1.25516 17.1776 1.0803 17.0486 0.951364C16.9197 0.822433 16.7448 0.75 16.5625 0.75ZM11.75 15.875H2.125V6.25H11.75V15.875ZM15.875 11.75H13.125V5.5625C13.125 5.38016 13.0526 5.2053 12.9236 5.07636C12.7947 4.94743 12.6198 4.875 12.4375 4.875H6.25V2.125H15.875V11.75Z" fill="#4E4A4A"/>
</svg>
