<svg width="55" height="55" viewBox="0 0 55 55" fill="none" xmlns="http://www.w3.org/2000/svg">
<path d="M8.44938 25.8339C8.23059 25.6272 7.97322 25.4656 7.69197 25.3583C7.41071 25.251 7.11108 25.2002 6.81018 25.2087C6.50928 25.2172 6.213 25.2849 5.93827 25.4079C5.66353 25.5309 5.41571 25.7068 5.20896 25.9256C5.00221 26.1444 4.84058 26.4018 4.73329 26.683C4.62601 26.9643 4.57517 27.2639 4.58368 27.5648C4.59219 27.8657 4.65989 28.162 4.7829 28.4367C4.90592 28.7115 5.08184 28.9593 5.30063 29.166L25.9256 48.6452C26.3511 49.0475 26.9145 49.2716 27.5 49.2716C28.0855 49.2716 28.6489 49.0475 29.0744 48.6452L49.7017 29.166C49.9252 28.9606 50.1058 28.7129 50.2328 28.4371C50.3598 28.1614 50.4308 27.8631 50.4416 27.5597C50.4523 27.2563 50.4027 26.9538 50.2956 26.6697C50.1885 26.3857 50.026 26.1257 49.8175 25.905C49.6091 25.6843 49.3589 25.5071 49.0814 25.3839C48.8039 25.2607 48.5048 25.1939 48.2012 25.1872C47.8977 25.1806 47.5959 25.2344 47.3133 25.3454C47.0308 25.4564 46.7731 25.6225 46.5552 25.8339L27.5 43.8281L8.44938 25.8339Z" fill="black"/>
</svg>
