<svg width="97" height="97" viewBox="0 0 97 97" fill="none" xmlns="http://www.w3.org/2000/svg">
<path d="M48.4997 68.7084C49.6448 68.7084 50.6054 68.3204 51.3814 67.5444C52.1574 66.7684 52.544 65.8092 52.5413 64.6667C52.5413 63.5216 52.1533 62.5623 51.3773 61.789C50.6013 61.0157 49.6421 60.6277 48.4997 60.625C47.3545 60.625 46.3953 61.013 45.622 61.789C44.8487 62.565 44.4607 63.5243 44.458 64.6667C44.458 65.8118 44.846 66.7724 45.622 67.5484C46.398 68.3244 47.3572 68.7111 48.4997 68.7084ZM44.458 52.5417H52.5413V28.2917H44.458V52.5417ZM48.4997 88.9167C42.9087 88.9167 37.6545 87.8551 32.7372 85.7319C27.8198 83.6087 23.5424 80.7296 19.9049 77.0948C16.2674 73.4573 13.3884 69.1799 11.2678 64.2625C9.14731 59.3452 8.0857 54.091 8.08301 48.5C8.08301 42.9091 9.14462 37.6549 11.2678 32.7375C13.3911 27.8202 16.2701 23.5427 19.9049 19.9052C23.5424 16.2677 27.8198 13.3887 32.7372 11.2682C37.6545 9.14768 42.9087 8.08607 48.4997 8.08337C54.0906 8.08337 59.3448 9.14499 64.2622 11.2682C69.1795 13.3914 73.457 16.2704 77.0945 19.9052C80.732 23.5427 83.6123 27.8202 85.7355 32.7375C87.8588 37.6549 88.919 42.9091 88.9163 48.5C88.9163 54.091 87.8547 59.3452 85.7315 64.2625C83.6083 69.1799 80.7293 73.4573 77.0945 77.0948C73.457 80.7323 69.1795 83.6127 64.2622 85.7359C59.3448 87.8591 54.0906 88.9194 48.4997 88.9167ZM48.4997 80.8334C57.5261 80.8334 65.1715 77.7011 71.4361 71.4365C77.7007 65.1719 80.833 57.5264 80.833 48.5C80.833 39.4736 77.7007 31.8282 71.4361 25.5636C65.1715 19.299 57.5261 16.1667 48.4997 16.1667C39.4733 16.1667 31.8278 19.299 25.5632 25.5636C19.2986 31.8282 16.1663 39.4736 16.1663 48.5C16.1663 57.5264 19.2986 65.1719 25.5632 71.4365C31.8278 77.7011 39.4733 80.8334 48.4997 80.8334Z" fill="#F21E1E"/>
</svg>
